<svg xmlns="http://www.w3.org/2000/svg" viewBox="0 0 820 140" role="img" aria-label="LOCMAF — Low Overhead CMAF for MOQ (light-background variant).">
  <defs>
    <linearGradient id="cmafGradL" x1="0" y1="0" x2="0" y2="1">
      <stop offset="0%" stop-color="#FFB347"/>
      <stop offset="100%" stop-color="#FC9900"/>
    </linearGradient>
    <linearGradient id="deltaGradL" x1="0" y1="0" x2="0" y2="1">
      <stop offset="0%" stop-color="#7FC4EB"/>
      <stop offset="100%" stop-color="#3F9BD2"/>
    </linearGradient>
  </defs>

  <!-- LEFT: big CMAF chunks. -->
  <g transform="translate(8,28)">
    <g transform="translate(0,0)">
      <rect x="0" y="0"  width="32" height="14" rx="2" fill="url(#cmafGradL)"/>
      <rect x="0" y="16" width="32" height="68" rx="2" fill="url(#cmafGradL)" opacity="0.85"/>
    </g>
    <g transform="translate(40,0)">
      <rect x="0" y="0"  width="32" height="14" rx="2" fill="url(#cmafGradL)"/>
      <rect x="0" y="16" width="32" height="68" rx="2" fill="url(#cmafGradL)" opacity="0.85"/>
    </g>
    <g transform="translate(80,0)">
      <rect x="0" y="0"  width="32" height="14" rx="2" fill="url(#cmafGradL)"/>
      <rect x="0" y="16" width="32" height="68" rx="2" fill="url(#cmafGradL)" opacity="0.85"/>
    </g>
  </g>

  <g font-family="ui-monospace, Menlo, Consolas, monospace" font-size="10" fill="#5a5a5a">
    <text x="24" y="22"  text-anchor="middle">moof</text>
    <text x="24" y="128" text-anchor="middle">mdat</text>
  </g>

  <!-- Compress wedge (dark stroke for light backgrounds). -->
  <g transform="translate(132,40)" fill="none" stroke="#4a4a4a" stroke-width="1.75" stroke-linejoin="round">
    <path d="M0 0 L42 24 L42 40 L0 64 Z"/>
  </g>

  <!-- Tiny deltas. -->
  <g transform="translate(186,60)">
    <rect x="0"  y="0" width="14" height="22" rx="2" fill="url(#deltaGradL)"/>
    <rect x="20" y="0" width="14" height="22" rx="2" fill="url(#deltaGradL)"/>
    <rect x="40" y="0" width="14" height="22" rx="2" fill="url(#deltaGradL)"/>
  </g>

  <!-- Decompress wedge. -->
  <g transform="translate(254,40)" fill="none" stroke="#4a4a4a" stroke-width="1.75" stroke-linejoin="round">
    <path d="M0 24 L42 0 L42 64 L0 40 Z"/>
  </g>

  <!-- RIGHT: reconstructed big chunks. -->
  <g transform="translate(304,28)">
    <g transform="translate(0,0)">
      <rect x="0" y="0"  width="32" height="14" rx="2" fill="url(#cmafGradL)"/>
      <rect x="0" y="16" width="32" height="68" rx="2" fill="url(#cmafGradL)" opacity="0.85"/>
    </g>
    <g transform="translate(40,0)">
      <rect x="0" y="0"  width="32" height="14" rx="2" fill="url(#cmafGradL)"/>
      <rect x="0" y="16" width="32" height="68" rx="2" fill="url(#cmafGradL)" opacity="0.85"/>
    </g>
    <g transform="translate(80,0)">
      <rect x="0" y="0"  width="32" height="14" rx="2" fill="url(#cmafGradL)"/>
      <rect x="0" y="16" width="32" height="68" rx="2" fill="url(#cmafGradL)" opacity="0.85"/>
    </g>
  </g>

  <!-- Wordmark in near-black so it reads on a white GitHub README. -->
  <g transform="translate(448,0)">
    <text x="0" y="82" font-family="'LevelOne','Helvetica Neue',Arial,sans-serif"
          font-size="62" font-weight="700" letter-spacing="2" fill="#1a1a1a">LOCMAF</text>
    <text x="2" y="112" font-family="'LevelOne','Helvetica Neue',Arial,sans-serif"
          font-size="14" letter-spacing="2" fill="#3F9BD2">LOW OVERHEAD CMAF FOR MOQ</text>
  </g>
</svg>
