<svg xmlns="http://www.w3.org/2000/svg" viewBox="0 0 820 140" role="img" aria-label="LOCMAF — Low Overhead CMAF for MOQ (dark-background variant).">
  <defs>
    <linearGradient id="cmafGradD2" x1="0" y1="0" x2="0" y2="1">
      <stop offset="0%" stop-color="#FFC069"/>
      <stop offset="100%" stop-color="#FC9900"/>
    </linearGradient>
    <linearGradient id="deltaGradD2" x1="0" y1="0" x2="0" y2="1">
      <stop offset="0%" stop-color="#A8DCF2"/>
      <stop offset="100%" stop-color="#61B5E5"/>
    </linearGradient>
  </defs>

  <!-- LEFT: big CMAF chunks (high-contrast variants of the gradient). -->
  <g transform="translate(8,28)">
    <g transform="translate(0,0)">
      <rect x="0" y="0"  width="32" height="14" rx="2" fill="url(#cmafGradD2)"/>
      <rect x="0" y="16" width="32" height="68" rx="2" fill="url(#cmafGradD2)" opacity="0.78"/>
    </g>
    <g transform="translate(40,0)">
      <rect x="0" y="0"  width="32" height="14" rx="2" fill="url(#cmafGradD2)"/>
      <rect x="0" y="16" width="32" height="68" rx="2" fill="url(#cmafGradD2)" opacity="0.78"/>
    </g>
    <g transform="translate(80,0)">
      <rect x="0" y="0"  width="32" height="14" rx="2" fill="url(#cmafGradD2)"/>
      <rect x="0" y="16" width="32" height="68" rx="2" fill="url(#cmafGradD2)" opacity="0.78"/>
    </g>
  </g>

  <g font-family="ui-monospace, Menlo, Consolas, monospace" font-size="10" fill="#cfcfcf">
    <text x="24" y="22"  text-anchor="middle">moof</text>
    <text x="24" y="128" text-anchor="middle">mdat</text>
  </g>

  <!-- Compress wedge (stroke-only). -->
  <g transform="translate(132,40)" fill="none" stroke="#cfcfcf" stroke-width="1.75" stroke-linejoin="round">
    <path d="M0 0 L42 24 L42 40 L0 64 Z"/>
  </g>

  <!-- Tiny deltas. -->
  <g transform="translate(186,60)">
    <rect x="0"  y="0" width="14" height="22" rx="2" fill="url(#deltaGradD2)"/>
    <rect x="20" y="0" width="14" height="22" rx="2" fill="url(#deltaGradD2)"/>
    <rect x="40" y="0" width="14" height="22" rx="2" fill="url(#deltaGradD2)"/>
  </g>

  <!-- Decompress wedge. -->
  <g transform="translate(254,40)" fill="none" stroke="#cfcfcf" stroke-width="1.75" stroke-linejoin="round">
    <path d="M0 24 L42 0 L42 64 L0 40 Z"/>
  </g>

  <!-- RIGHT: reconstructed big chunks. -->
  <g transform="translate(304,28)">
    <g transform="translate(0,0)">
      <rect x="0" y="0"  width="32" height="14" rx="2" fill="url(#cmafGradD2)"/>
      <rect x="0" y="16" width="32" height="68" rx="2" fill="url(#cmafGradD2)" opacity="0.78"/>
    </g>
    <g transform="translate(40,0)">
      <rect x="0" y="0"  width="32" height="14" rx="2" fill="url(#cmafGradD2)"/>
      <rect x="0" y="16" width="32" height="68" rx="2" fill="url(#cmafGradD2)" opacity="0.78"/>
    </g>
    <g transform="translate(80,0)">
      <rect x="0" y="0"  width="32" height="14" rx="2" fill="url(#cmafGradD2)"/>
      <rect x="0" y="16" width="32" height="68" rx="2" fill="url(#cmafGradD2)" opacity="0.78"/>
    </g>
  </g>

  <!-- Wordmark — pure white with a slightly tighter weight for dark backgrounds. -->
  <g transform="translate(448,0)">
    <text x="0" y="82" font-family="'LevelOne','Helvetica Neue',Arial,sans-serif"
          font-size="62" font-weight="700" letter-spacing="2" fill="#FFFFFF">LOCMAF</text>
    <text x="2" y="112" font-family="'LevelOne','Helvetica Neue',Arial,sans-serif"
          font-size="14" letter-spacing="2" fill="#61B5E5">LOW OVERHEAD CMAF FOR MOQ</text>
  </g>
</svg>
